<svg version="1.1" id="Layer_1" class="svg-logo-desktop" xmlns="http://www.w3.org/2000/svg" xmlns:xlink="http://www.w3.org/1999/xlink" x="0px" y="0px" viewBox="-540 381.7 206.9 39.3" style="enable-background:new -540 381.7 206.9 39.3;" xml:space="preserve">
    <g>
    <path d="M-525.8,399.9h9c-1.2,4.1-5,7.2-9.5,7.2c-5.4,0-9.9-4.4-9.9-9.9c0-5.4,4.4-9.9,9.9-9.9c4.1,0,7.6,2.5,9.1,6.1h2.7
        c-1.6-5-6.3-8.6-11.8-8.6c-6.8,0-12.4,5.6-12.4,12.4s5.6,12.4,12.4,12.4c3.9,0,7.5-2,9.6-4.8v4.3h2.3v-11.7h-11.4V399.9z"></path>
    <rect x="-510.2" y="385.6" width="2.5" height="23.4"></rect>
    <rect x="-437.3" y="385.6" width="2.5" height="23.4"></rect>
    <path d="M-494.8,407.4c-3.8,0-6.9-3.3-6.9-7c0-3.8,3.1-7,6.9-7c3.8,0,6.9,3.2,6.9,7C-488,404.1-491.1,407.4-494.8,407.4
        M-494.8,390.9c-5.2,0-9.4,4.2-9.4,9.4c0,5.2,4.2,9.4,9.4,9.4c5.2,0,9.4-4.2,9.4-9.4C-485.5,395.1-489.7,390.9-494.8,390.9"></path>
    <path d="M-473.2,407.4c-3.8,0-6.9-3.3-6.9-7c0-3.8,3.1-7,6.9-7c3.8,0,6.9,3.2,6.9,7C-466.4,404.1-469.4,407.4-473.2,407.4
        M-473.1,390.8c-2.8,0-5.3,1.2-7,3.2v-8.4h-2.5V409h2.5v-2.3c1.7,1.9,4.2,3.1,7,3.1c5.2,0,9.4-4.3,9.4-9.5
        C-463.7,395-467.9,390.8-473.1,390.8"></path>
    <path d="M-451,407.4c-3.8,0-6.9-3.3-6.9-7c0-3.8,3.1-7,6.9-7s6.9,3.2,6.9,7C-444.1,404.1-447.2,407.4-451,407.4 M-444.1,394
        c-1.7-2-4.3-3.2-7.1-3.2c-5.3,0-9.5,4.3-9.5,9.5c0,5.3,4.3,9.5,9.5,9.5c2.8,0,5.4-1.2,7.1-3.2v2.4h2.5v-17.1h-2.5V394z"></path>
    <rect x="-369.8" y="383.2" width="4.4" height="4.1"></rect>
    <polygon points="-426,385.6 -430,385.6 -430,405.3 -430,409 -416.9,409 -416.9,405.3 -426,405.3   "></polygon>
    <rect x="-369.8" y="390.6" width="4.4" height="18.4"></rect>
    <path d="M-405.7,405.8c-2.9,0-5.3-2.5-5.3-5.7c0-3.1,2.4-5.7,5.3-5.7c2.9,0,5.3,2.5,5.3,5.7C-400.4,403.3-402.8,405.8-405.7,405.8
        M-405.7,390.5c-5.3,0-9.6,4.3-9.6,9.6c0,5.3,4.3,9.6,9.6,9.6c5.3,0,9.6-4.3,9.6-9.6C-396.1,394.8-400.4,390.5-405.7,390.5"></path>
    <path d="M-347.2,402.7c-0.9,1.9-2.7,3.1-4.7,3.1c-2.9,0-5.3-2.6-5.3-5.7c0-3.4,2.4-5.7,5.3-5.7c2,0,3.7,1.2,4.6,2.9h4.6
        c-1.2-3.9-4.9-6.8-9.2-6.8c-5.3,0-9.6,4.3-9.6,9.6c0,5.3,4.3,9.6,9.6,9.6c4.4,0,8.2-3,9.3-7.1h-4.6V402.7z"></path>
    <path d="M-384.4,415.4c-2,0-3.8-1-5-2.6l-3.9,1.9c1.8,2.9,4.9,4.8,8.9,4.8c5.1,0,9.3-4.1,9.7-9h-4.3
        C-379.4,413.3-381.6,415.4-384.4,415.4"></path>
    <path d="M-384.2,405.9c-2.9,0-5.3-2.5-5.3-5.7c0-3.1,2.4-5.7,5.3-5.7c2.9,0,5.3,2.5,5.3,5.7S-381.2,405.9-384.2,405.9
        M-378.5,392.5c-1.6-1.1-3.5-1.8-5.6-1.8c-5.3,0-9.6,4.3-9.6,9.6c0,5.3,4.3,9.6,9.6,9.6s9.6-4.3,9.6-9.5v-9.8h-4V392.5z"></path>
    </g>
    <g>
    <path d="M-339.1,387.4c0-1.6,1.1-2.6,2.6-2.6s2.6,1.1,2.6,2.6s-1.1,2.6-2.6,2.6C-338,390-339.1,388.9-339.1,387.4z M-334.3,387.4
        c0-1.4-0.9-2.3-2.2-2.3c-1.2,0-2.2,0.9-2.2,2.3c0,1.4,0.9,2.3,2.2,2.3C-335.3,389.6-334.3,388.7-334.3,387.4z M-337.6,386h1.2
        c0.5,0,0.9,0.3,0.9,0.8c0,0.3-0.2,0.6-0.5,0.6l0,0c0.3,0.1,0.4,0.2,0.4,0.6c0,0.4,0,0.6,0.1,0.7l0,0h-0.5c-0.1,0-0.1-0.3-0.1-0.6
        c0-0.3-0.2-0.5-0.5-0.5h-0.5v1.1h-0.5V386L-337.6,386z M-336.9,387.2h0.6c0.3,0,0.5-0.2,0.5-0.4c0-0.2-0.1-0.4-0.4-0.4h-0.6v0.8
        H-336.9z"></path>
    </g>
</svg>